<svg xmlns="http://www.w3.org/2000/svg" xmlns:xlink="http://www.w3.org/1999/xlink" width="600" zoomAndPan="magnify" viewBox="0 0 450 193.499995" height="258" preserveAspectRatio="xMidYMid meet" version="1.0"><defs><g/><clipPath id="80280b09b3"><path d="M 37.984375 37.617188 L 118 37.617188 L 118 155 L 37.984375 155 Z M 37.984375 37.617188 " clip-rule="nonzero"/></clipPath><clipPath id="7e22e49317"><path d="M 122 37.617188 L 201.808594 37.617188 L 201.808594 155 L 122 155 Z M 122 37.617188 " clip-rule="nonzero"/></clipPath></defs><g clip-path="url(#80280b09b3)"><path fill="#ffffff" d="M 94.082031 53.523438 C 96.921875 53.523438 99.324219 55.152344 100.304688 57.542969 L 116.894531 57.542969 L 116.894531 53.523438 C 116.894531 45.371094 110.671875 38.417969 102.488281 37.980469 C 96.265625 37.765625 90.917969 41.351562 88.515625 46.566406 C 88.082031 47.546875 86.878906 47.980469 85.898438 47.980469 C 77.492188 47.980469 70.726562 54.71875 70.726562 63.085938 C 70.726562 63.847656 70.726562 64.5 70.945312 65.042969 C 71.164062 66.996094 70.179688 68.84375 68.324219 69.605469 C 67.5625 69.933594 67.015625 70.367188 66.25 70.800781 L 50.097656 70.800781 C 49.007812 68.519531 47.261719 66.78125 44.53125 66.78125 C 40.929688 66.78125 37.984375 69.714844 37.984375 73.300781 C 37.984375 76.886719 40.929688 79.820312 44.53125 79.820312 C 47.152344 79.820312 49.007812 77.972656 50.097656 75.800781 L 97.578125 75.800781 C 98.558594 73.628906 100.960938 71.996094 103.578125 71.996094 C 107.179688 71.996094 110.347656 74.824219 110.347656 78.515625 C 110.347656 82.105469 107.179688 85.039062 103.578125 85.039062 C 100.960938 85.039062 98.558594 83.40625 97.578125 81.234375 L 57.519531 81.234375 C 56.320312 83.625 55.882812 86.234375 55.882812 88.949219 C 55.882812 95.144531 58.722656 100.46875 63.085938 104.273438 C 63.304688 104.492188 63.523438 105.035156 63.851562 105.25 L 52.0625 105.25 C 51.082031 103.078125 48.679688 101.449219 45.839844 101.449219 C 42.238281 101.449219 39.292969 104.273438 39.292969 107.96875 C 39.292969 111.554688 42.128906 114.488281 45.839844 114.488281 C 48.679688 114.488281 51.082031 112.859375 52.0625 110.683594 L 92.011719 110.683594 C 92.992188 108.292969 95.175781 106.664062 98.011719 106.664062 C 101.613281 106.664062 104.5625 109.488281 104.5625 113.183594 C 104.5625 116.988281 101.722656 119.921875 98.011719 119.921875 C 95.394531 119.921875 92.992188 118.292969 92.011719 115.902344 L 64.503906 115.902344 C 64.941406 123.617188 69.746094 130.027344 76.292969 133.398438 C 77.710938 134.160156 79.132812 135.355469 79.675781 136.984375 C 80.878906 140.351562 83.277344 143.179688 86.445312 145.132812 C 87.644531 145.894531 88.84375 146.765625 89.609375 147.960938 C 92.773438 152.308594 97.792969 154.914062 103.578125 154.15625 C 111.328125 153.394531 117.003906 146.765625 117.003906 138.832031 L 117.003906 133.613281 L 97.25 133.613281 C 96.265625 136.003906 94.082031 137.636719 91.246094 137.636719 C 87.644531 137.636719 84.699219 134.808594 84.699219 131.117188 C 84.699219 127.527344 87.535156 124.378906 91.246094 124.378906 C 93.867188 124.378906 96.265625 126.007812 97.25 128.398438 L 117.003906 128.398438 L 117.003906 98.949219 L 85.898438 98.949219 C 84.914062 101.121094 82.515625 102.75 79.894531 102.75 C 76.292969 102.75 73.347656 99.925781 73.347656 96.230469 C 73.347656 92.644531 76.183594 89.710938 79.894531 89.710938 C 82.515625 89.710938 84.914062 91.339844 85.898438 93.515625 L 116.894531 93.515625 L 116.894531 62.652344 L 100.414062 62.652344 C 99.433594 65.042969 97.03125 66.671875 94.191406 66.671875 C 90.589844 66.671875 87.644531 63.847656 87.644531 60.152344 C 87.644531 56.675781 90.480469 53.523438 94.082031 53.523438 Z M 94.082031 53.523438 " fill-opacity="1" fill-rule="nonzero"/></g><g clip-path="url(#7e22e49317)"><path fill="#ffffff" d="M 145.601562 53.523438 C 142.761719 53.523438 140.359375 55.152344 139.378906 57.542969 L 122.789062 57.542969 L 122.789062 53.523438 C 122.789062 45.371094 129.011719 38.417969 137.195312 37.980469 C 143.417969 37.765625 148.765625 41.351562 151.167969 46.566406 C 151.601562 47.546875 152.804688 47.980469 153.785156 47.980469 C 162.191406 47.980469 168.957031 54.71875 168.957031 63.085938 C 168.957031 63.847656 168.957031 64.5 168.738281 65.042969 C 168.519531 66.996094 169.503906 68.84375 171.359375 69.605469 C 172.121094 69.933594 172.667969 70.367188 173.433594 70.800781 L 189.695312 70.800781 C 190.785156 68.519531 192.53125 66.78125 195.261719 66.78125 C 198.863281 66.78125 201.808594 69.714844 201.808594 73.300781 C 201.808594 76.886719 198.863281 79.820312 195.261719 79.820312 C 192.640625 79.820312 190.785156 77.972656 189.695312 75.800781 L 142.214844 75.800781 C 141.234375 73.628906 138.832031 71.996094 136.214844 71.996094 C 132.613281 71.996094 129.445312 74.824219 129.445312 78.515625 C 129.445312 82.105469 132.613281 85.039062 136.214844 85.039062 C 138.832031 85.039062 141.234375 83.40625 142.214844 81.234375 L 182.164062 81.234375 C 183.363281 83.625 183.800781 86.234375 183.800781 88.949219 C 183.800781 95.144531 180.964844 100.46875 176.597656 104.273438 C 176.378906 104.492188 176.160156 105.035156 175.832031 105.25 L 187.621094 105.25 C 188.601562 103.078125 191.003906 101.449219 193.84375 101.449219 C 197.445312 101.449219 200.390625 104.273438 200.390625 107.96875 C 200.390625 111.554688 197.554688 114.488281 193.84375 114.488281 C 191.003906 114.488281 188.601562 112.859375 187.621094 110.683594 L 147.675781 110.683594 C 146.691406 108.292969 144.507812 106.664062 141.671875 106.664062 C 138.070312 106.664062 135.121094 109.488281 135.121094 113.183594 C 135.121094 116.988281 137.960938 119.921875 141.671875 119.921875 C 144.289062 119.921875 146.691406 118.292969 147.675781 115.902344 L 175.070312 115.902344 C 174.632812 123.617188 169.832031 130.027344 163.28125 133.398438 C 161.863281 134.160156 160.445312 135.355469 159.898438 136.984375 C 158.699219 140.351562 156.296875 143.179688 153.132812 145.132812 C 151.929688 145.894531 150.730469 146.765625 149.964844 147.960938 C 146.800781 152.308594 141.78125 154.914062 135.996094 154.15625 C 128.246094 153.394531 122.570312 146.765625 122.570312 138.832031 L 122.570312 133.613281 L 142.324219 133.613281 C 143.308594 136.003906 145.492188 137.636719 148.328125 137.636719 C 151.929688 137.636719 154.878906 134.808594 154.878906 131.117188 C 154.878906 127.527344 152.039062 124.378906 148.328125 124.378906 C 145.710938 124.378906 143.308594 126.007812 142.324219 128.398438 L 122.570312 128.398438 L 122.570312 98.949219 L 153.566406 98.949219 C 154.550781 101.121094 156.953125 102.75 159.570312 102.75 C 163.171875 102.75 166.121094 99.925781 166.121094 96.230469 C 166.121094 92.644531 163.28125 89.710938 159.570312 89.710938 C 156.953125 89.710938 154.550781 91.339844 153.566406 93.515625 L 122.570312 93.515625 L 122.570312 62.652344 L 139.160156 62.652344 C 140.144531 65.042969 142.542969 66.671875 145.382812 66.671875 C 148.984375 66.671875 151.929688 63.847656 151.929688 60.152344 C 152.039062 56.675781 149.203125 53.523438 145.601562 53.523438 Z M 145.601562 53.523438 " fill-opacity="1" fill-rule="nonzero"/></g><g fill="#ffffff" fill-opacity="1"><g transform="translate(214.602063, 114.615226)"><g><path d="M 3.453125 0 L 3.453125 -36.296875 L 27.734375 -36.296875 L 33.1875 -30.828125 L 33.1875 -16.84375 L 27.734375 -11.375 L 12.65625 -11.375 L 12.65625 0 Z M 12.65625 -18.375 L 22.5625 -18.375 L 24.28125 -20.09375 L 24.28125 -27.578125 L 22.5625 -29.296875 L 12.65625 -29.296875 Z M 12.65625 -18.375 "/></g></g></g><g fill="#ffffff" fill-opacity="1"><g transform="translate(253.001939, 114.615226)"><g><path d="M 7.921875 0 L 2.46875 -5.46875 L 2.46875 -30.828125 L 7.921875 -36.296875 L 29.203125 -36.296875 L 34.671875 -30.828125 L 34.671875 -5.46875 L 29.203125 0 Z M 13.4375 -7 L 23.78125 -7 L 25.515625 -8.71875 L 25.515625 -27.578125 L 23.6875 -29.296875 L 13.4375 -29.296875 L 11.671875 -27.578125 L 11.671875 -8.71875 Z M 13.4375 -7 "/></g></g></g><g fill="#ffffff" fill-opacity="1"><g transform="translate(294.601641, 114.615226)"><g><path d="M 10.390625 0 L 10.390625 -28.8125 L 0.25 -28.8125 L 0.25 -36.296875 L 29.75 -36.296875 L 29.75 -28.8125 L 19.59375 -28.8125 L 19.59375 0 Z M 10.390625 0 "/></g></g></g><g fill="#ffffff" fill-opacity="1"><g transform="translate(329.063247, 114.615226)"><g><path d="M 7.921875 0 L 2.46875 -5.46875 L 2.46875 -30.828125 L 7.921875 -36.296875 L 29.203125 -36.296875 L 34.671875 -30.828125 L 34.671875 -5.46875 L 29.203125 0 Z M 13.4375 -7 L 23.78125 -7 L 25.515625 -8.71875 L 25.515625 -27.578125 L 23.6875 -29.296875 L 13.4375 -29.296875 L 11.671875 -27.578125 L 11.671875 -8.71875 Z M 13.4375 -7 "/></g></g></g><g fill="#ffffff" fill-opacity="1"><g transform="translate(368.316747, 114.481102)"><g><path d="M 1.8125 0 L 1.8125 -3.40625 L 4.359375 -3.40625 L 4.359375 0 Z M 1.8125 0 "/></g></g></g><g fill="#ffffff" fill-opacity="1"><g transform="translate(377.411585, 114.481102)"><g><path d="M 0.40625 0 L 7.59375 -21.28125 L 11.671875 -21.28125 L 18.859375 0 L 16.109375 0 L 14.296875 -5.546875 L 4.96875 -5.546875 L 3.171875 0 Z M 5.75 -7.859375 L 13.546875 -7.859375 L 9.96875 -18.796875 L 9.296875 -18.796875 Z M 5.75 -7.859375 "/></g></g></g><g fill="#ffffff" fill-opacity="1"><g transform="translate(399.295868, 114.481102)"><g><path d="M 1.796875 0 L 1.796875 -2.421875 L 4.390625 -2.421875 L 4.390625 -18.859375 L 1.796875 -18.859375 L 1.796875 -21.28125 L 9.609375 -21.28125 L 9.609375 -18.859375 L 7.015625 -18.859375 L 7.015625 -2.421875 L 9.609375 -2.421875 L 9.609375 0 Z M 1.796875 0 "/></g></g></g></svg>